<svg xmlns="http://www.w3.org/2000/svg" viewBox="0 0 64 64" width="48" height="48">
  <rect x="4" y="20" width="56" height="24" rx="3" fill="#0a0a0a" stroke="#10b981" stroke-width="1.5"/>
  <line x1="4" y1="32" x2="60" y2="32" stroke="#10b981" stroke-width="0.5" opacity="0.3"/>
  <line x1="4" y1="26" x2="60" y2="26" stroke="#10b981" stroke-width="0.3" opacity="0.2"/>
  <line x1="4" y1="38" x2="60" y2="38" stroke="#10b981" stroke-width="0.3" opacity="0.2"/>
  <path d="M 4 32 L 14 32 L 18 32 L 21 22 L 25 42 L 29 26 L 33 32 L 60 32"
        fill="none" stroke="#10b981" stroke-width="2" stroke-linecap="round" stroke-linejoin="round"
        stroke-dasharray="120" stroke-dashoffset="120">
    <animate attributeName="stroke-dashoffset" values="120;0;0;-120" dur="2.5s" repeatCount="indefinite"/>
  </path>
  <g transform="translate(48 32)">
    <path d="M 0 0 c -3 -6 -10 -5 -10 1 c 0 5 10 11 10 11 c 0 0 10 -6 10 -11 c 0 -6 -7 -7 -10 -1 z"
          fill="#fbbf24">
      <animateTransform attributeName="transform" type="scale" values="0.8;1.1;0.8" dur="1s" repeatCount="indefinite" additive="sum"/>
    </path>
  </g>
</svg>
